<svg version="1.1" xmlns="http://www.w3.org/2000/svg" xmlns:xlink="http://www.w3.org/1999/xlink" width="26.532" height="15.158" viewBox="0,0,256,146.25"><g fill="#ff6600" fill-rule="nonzero" stroke="none" stroke-width="1" stroke-linecap="butt" stroke-linejoin="miter" stroke-miterlimit="10" stroke-dasharray="" stroke-dashoffset="0" font-family="none" font-weight="none" font-size="none" text-anchor="none" style="mix-blend-mode: normal"><g transform="translate(-0.00247,-0.00514) scale(9.64873,9.64873)"><path d="M22.345,6.783c-0.70309,-0.00112 -1.39499,0.17607 -2.011,0.515l-0.492,-0.537c1.17421,-0.60364 2.49427,-0.86557 3.81,-0.756c0.766,0.028 0.832,-4.412 -4.822,-5.963c-1.2,-0.33 -0.228,1.318 -0.322,2.256c0,0 -5.147,-2.736 -7.043,0.7c-0.708,1.284 -0.872,1.9 -2.738,1.9c-1.866,0 -1.1,-1.607 -3.56,-1.637c-1.545,-0.019 -3.129,0.713 -2.973,1.3c0.128,0.479 4.419,0.678 6.093,3.916c-0.2,0.089 -0.383,0.173 -0.566,0.254c-1.05097,-1.65511 -3.11011,-2.35874 -4.95418,-1.69291c-1.84407,0.66584 -2.97872,2.52264 -2.7299,4.46739c0.24882,1.94474 1.81439,3.45607 3.7667,3.63619c1.9523,0.18011 3.76796,-1.01927 4.36839,-2.88567c1.254,0.21 2.3,0.346 2.3,0.346c0,0 6.529,1.185 6.625,-0.125c0.00123,-1.72739 0.56265,-3.40778 1.6,-4.789l0.49,0.536c-1.29278,1.48584 -1.37459,3.67201 -0.19649,5.25033c1.1781,1.57832 3.29727,2.12161 5.08941,1.30477c1.79215,-0.81683 2.77223,-2.77271 2.35378,-4.69727c-0.41845,-1.92455 -2.12218,-3.2969 -4.0917,-3.29584zM4.187,13.148c-1.00785,0.00003 -1.88396,-0.69171 -2.11771,-1.67208c-0.23375,-0.98037 0.23597,-1.99301 1.1354,-2.44774c0.89943,-0.45473 1.9934,-0.23264 2.64431,0.53682c-1.45,0.661 -2.007,1.01 -1.827,1.5c0.1,0.275 1.025,0.558 2.146,0.8c-0.35466,0.77541 -1.12833,1.27336 -1.981,1.275zM22.345,13.148c-0.81283,0.00119 -1.5585,-0.45095 -1.93325,-1.17225c-0.37474,-0.72129 -0.31602,-1.59136 0.15225,-2.25575l1.036,1.13c0.07181,0.08004 0.17282,0.1278 0.28025,0.1325c0.10743,0.0047 0.21223,-0.03404 0.29075,-0.1075l0.485,-0.444c0.08004,-0.07181 0.1278,-0.17282 0.1325,-0.28025c0.0047,-0.10743 -0.03404,-0.21223 -0.1075,-0.29075l-0.907,-0.99c0.81723,-0.22179 1.68893,0.05043 2.23471,0.69788c0.54578,0.64745 0.6666,1.55263 0.30973,2.32056c-0.35686,0.76793 -1.12664,1.25925 -1.97344,1.25956z" id="Path_780"></path></g></g></svg>