<svg version="1.1" xmlns="http://www.w3.org/2000/svg" xmlns:xlink="http://www.w3.org/1999/xlink" width="14.458" height="20.993" viewBox="0,0,176.29688,256"><g fill="#ff6600" fill-rule="nonzero" stroke="none" stroke-width="1" stroke-linecap="butt" stroke-linejoin="miter" stroke-miterlimit="10" stroke-dasharray="" stroke-dashoffset="0" font-family="none" font-weight="none" font-size="none" text-anchor="none" style="mix-blend-mode: normal"><g transform="translate(-0.02419,0) scale(12.19454,12.19454)"><path d="M7.229,0c-3.98813,0.01044 -7.21856,3.24087 -7.229,7.229c0,3.847 6.566,12.842 6.865,13.233l0.4,0.531l0.364,-0.565c0.266,-0.357 6.832,-9.353 6.832,-13.2c-0.011,-3.98891 -3.24308,-7.21921 -7.232,-7.228zM7.263,10.348v0c-1.48472,0.00002 -2.76268,-1.04882 -3.05226,-2.50502c-0.28959,-1.45621 0.48986,-2.91418 1.86162,-3.48222c1.37176,-0.56804 2.95376,-0.08791 3.77842,1.14672c0.82467,1.23464 0.66231,2.87989 -0.38778,3.92951c-0.58357,0.58331 -1.37489,0.91099 -2.2,0.911z" id="Path_783"></path></g></g></svg>