<svg version="1.1" xmlns="http://www.w3.org/2000/svg" xmlns:xlink="http://www.w3.org/1999/xlink" width="11.753" height="20.803" viewBox="0,0,144.625,256"><g fill="#ff6600" fill-rule="nonzero" stroke="none" stroke-width="1" stroke-linecap="butt" stroke-linejoin="miter" stroke-miterlimit="10" stroke-dasharray="" stroke-dashoffset="0" font-family="none" font-weight="none" font-size="none" text-anchor="none" style="mix-blend-mode: normal"><g transform="translate(-0.00282,0.01846) scale(12.30592,12.30592)"><path d="M1.755,20.8c-0.97973,-0.01698 -1.76283,-0.82016 -1.755,-1.8v-17.19c-0.01008,-0.98241 0.77274,-1.78977 1.755,-1.81h8.236c0.98314,0.02074 1.76768,0.82665 1.762,1.81v17.19c0.00506,0.98143 -0.78069,1.78412 -1.762,1.8zM0.924,19c-0.00374,0.22393 0.08178,0.44014 0.23768,0.60092c0.15591,0.16078 0.36938,0.25292 0.59332,0.25608h8.236c0.22482,-0.00237 0.43947,-0.09403 0.59665,-0.25478c0.15719,-0.16075 0.24401,-0.3774 0.24135,-0.60222v-2.046h-9.905zM0.924,1.809v2.047h9.9v-2.046c0.00616,-0.46767 -0.36542,-0.85307 -0.833,-0.864h-8.236c-0.46774,0.00984 -0.83937,0.39623 -0.831,0.864zM4.919,18.409c0.01154,-0.5262 0.44542,-0.94455 0.97169,-0.9369c0.52627,0.00765 0.94781,0.43843 0.94405,0.96475c-0.00376,0.52631 -0.43142,0.95103 -0.95775,0.95115c-0.53206,-0.00874 -0.95862,-0.44287 -0.958,-0.975zM7.489,2.78h-3.225c-0.12423,0.00155 -0.24374,-0.04756 -0.331,-0.136c-0.1836,-0.18677 -0.1836,-0.48623 0,-0.673c0.08726,-0.08844 0.20677,-0.13755 0.331,-0.136h3.225c0.12428,-0.00178 0.24387,0.04736 0.331,0.136c0.18414,0.18655 0.18414,0.48645 0,0.673c-0.08446,0.08591 -0.19954,0.13482 -0.32,0.136z" id="Union_10"></path></g></g></svg>