<svg version="1.1" xmlns="http://www.w3.org/2000/svg" xmlns:xlink="http://www.w3.org/1999/xlink" width="17.312" height="18.495" viewBox="0,0,239.625,256"><g fill="#ff6600" fill-rule="nonzero" stroke="none" stroke-width="1" stroke-linecap="butt" stroke-linejoin="miter" stroke-miterlimit="10" stroke-dasharray="" stroke-dashoffset="0" font-family="none" font-weight="none" font-size="none" text-anchor="none" style="mix-blend-mode: normal"><g transform="translate(-0.02154,0.03867) scale(13.84158,13.84158)"><path d="M0.993,18.495c-0.53468,0.00517 -0.97564,-0.41758 -0.993,-0.952v0c0.036,-2.725 0.106,-4.235 2.235,-4.957c1.17682,-0.40319 2.31615,-0.90845 3.405,-1.51l1.632,4.793l0.213,0.657l0.745,-1.937c-1.7,-2.167 0.106,-2.265 0.426,-2.265c0.32,0 2.128,0.1 0.461,2.265l0.745,1.937l0.213,-0.657l1.6,-4.793c1.08881,0.60163 2.22815,1.10689 3.405,1.51c2.128,0.689 2.2,2.232 2.235,4.957c0.00345,0.26075 -0.10146,0.51124 -0.2897,0.69171c-0.18824,0.18047 -0.44293,0.27473 -0.7033,0.26029zM7.626,11.076c-1.36462,-0.475 -2.37633,-1.63619 -2.66,-3.053c-0.177,0 -0.461,-0.263 -0.745,-1.215c-0.39,-1.28 0.035,-1.477 0.319,-1.445c-0.06299,-0.17023 -0.10987,-0.346 -0.14,-0.525c-0.12429,-0.56221 -0.12429,-1.14479 0,-1.707c0.18584,-0.66771 0.55432,-1.27031 1.064,-1.74c0.29224,-0.29852 0.62641,-0.55286 0.992,-0.755c0.29116,-0.20617 0.61505,-0.36169 0.958,-0.46c0.28383,-0.10462 0.58352,-0.15975 0.886,-0.163c0.75939,-0.07752 1.52475,0.07103 2.2,0.427c0.43425,0.19984 0.80312,0.51844 1.064,0.919c0,0 1.774,0.131 1.17,3.48c-0.03059,0.1791 -0.07814,0.3549 -0.142,0.525c0.355,-0.033 0.78,0.164 0.39,1.445c-0.284,0.919 -0.532,1.215 -0.745,1.215c-0.28367,1.41681 -1.29538,2.578 -2.66,3.053c-0.63547,0.19664 -1.31553,0.19664 -1.951,0z" id="Union_11"></path></g></g></svg>