<svg xmlns="http://www.w3.org/2000/svg" width="15.04" height="15.04" viewBox="0 0 15.04 15.04">
  <path id="Path_802" data-name="Path 802" d="M12.849,2.186A7.5,7.5,0,0,0,.063,7.452a7.414,7.414,0,0,0,1,3.725L0,15.04,3.97,14a7.509,7.509,0,0,0,3.578.907h0A7.482,7.482,0,0,0,15.04,7.458,7.39,7.39,0,0,0,12.849,2.186Zm-5.3,11.466h0a6.231,6.231,0,0,1-3.168-.864l-.227-.134L1.8,13.269l.629-2.285-.148-.234A6.193,6.193,0,0,1,7.554,1.258a6.2,6.2,0,1,1,0,12.393Zm3.414-4.639c-.187-.093-1.107-.543-1.278-.605s-.3-.093-.421.093-.483.607-.592.73-.218.14-.405.047a5.135,5.135,0,0,1-1.5-.924,5.6,5.6,0,0,1-1.041-1.29c-.11-.186-.012-.287.081-.38s.187-.217.281-.326a1.275,1.275,0,0,0,.187-.311.341.341,0,0,0-.016-.326c-.046-.093-.42-1.01-.577-1.382s-.306-.314-.42-.32-.234-.007-.358-.007a.692.692,0,0,0-.5.233A2.085,2.085,0,0,0,3.746,5.8,3.613,3.613,0,0,0,4.51,7.724a8.332,8.332,0,0,0,3.2,2.812,10.782,10.782,0,0,0,1.067.392A2.583,2.583,0,0,0,9.952,11a1.929,1.929,0,0,0,1.263-.885,1.546,1.546,0,0,0,.109-.885C11.277,9.152,11.153,9.106,10.965,9.013Z" fill="#075e54" fill-rule="evenodd"/>
</svg>
